<mxfile host="65bd71144e">
    <diagram id="HJ0e3s011_IOv_gGbdyX" name="Page-1">
        <mxGraphModel dx="1386" dy="779" grid="1" gridSize="10" guides="1" tooltips="1" connect="1" arrows="1" fold="1" page="1" pageScale="1" pageWidth="1169" pageHeight="827" background="#ffffff" math="0" shadow="0">
            <root>
                <mxCell id="0"/>
                <mxCell id="1" parent="0"/>
                <mxCell id="2" value="&lt;table data-sheets-root=&quot;1&quot; style=&quot;table-layout:fixed;font-size:10pt;font-family:Arial;width:0px;border-collapse:collapse;border:none&quot; border=&quot;1&quot; dir=&quot;ltr&quot; cellpadding=&quot;0&quot; cellspacing=&quot;0&quot; xmlns=&quot;http://www.w3.org/1999/xhtml&quot;&gt;&lt;colgroup&gt;&lt;col width=&quot;47&quot;&gt;&lt;col width=&quot;87&quot;&gt;&lt;col width=&quot;34&quot;&gt;&lt;col width=&quot;47&quot;&gt;&lt;col width=&quot;74&quot;&gt;&lt;col width=&quot;74&quot;&gt;&lt;col width=&quot;182&quot;&gt;&lt;col width=&quot;260&quot;&gt;&lt;/colgroup&gt;&lt;tbody&gt;&lt;tr style=&quot;height:21px;&quot;&gt;&lt;td colspan=&quot;3&quot; rowspan=&quot;1&quot; style=&quot;border-top:1px solid #000000;border-right:1px solid #000000;border-bottom:1px solid #000000;border-left:1px solid #000000;overflow:hidden;padding:2px 3px 2px 3px;vertical-align:middle;background-color:#b7b7b7;&quot;&gt;&lt;/td&gt;&lt;td data-sheets-value=&quot;{&amp;quot;1&amp;quot;:2,&amp;quot;2&amp;quot;:&amp;quot;炭素数&amp;quot;}&quot; style=&quot;border-top:1px solid #000000;border-right:1px solid #000000;border-bottom:1px solid #000000;overflow:hidden;padding:2px 3px 2px 3px;vertical-align:middle;text-align:center;&quot;&gt;炭素数&lt;/td&gt;&lt;td data-sheets-value=&quot;{&amp;quot;1&amp;quot;:2,&amp;quot;2&amp;quot;:&amp;quot;二重結合数&amp;quot;}&quot; style=&quot;border-top:1px solid #000000;border-right:1px solid #000000;border-bottom:1px solid #000000;overflow:hidden;padding:2px 3px 2px 3px;vertical-align:middle;text-align:center;&quot;&gt;二重結合数&lt;/td&gt;&lt;td data-sheets-value=&quot;{&amp;quot;1&amp;quot;:2,&amp;quot;2&amp;quot;:&amp;quot;オメガ分類&amp;quot;}&quot; style=&quot;border-top:1px solid #000000;border-right:1px solid #000000;border-bottom:1px solid #000000;overflow:hidden;padding:2px 3px 2px 3px;vertical-align:middle;text-align:center;&quot;&gt;オメガ分類&lt;/td&gt;&lt;td data-sheets-value=&quot;{&amp;quot;1&amp;quot;:2,&amp;quot;2&amp;quot;:&amp;quot;脂肪酸名&amp;quot;}&quot; style=&quot;border-top:1px solid #000000;border-right:1px solid #000000;border-bottom:1px solid #000000;overflow:hidden;padding:2px 3px 2px 3px;vertical-align:middle;text-align:center;&quot;&gt;脂肪酸名&lt;/td&gt;&lt;td data-sheets-value=&quot;{&amp;quot;1&amp;quot;:2,&amp;quot;2&amp;quot;:&amp;quot;含有食品例&amp;quot;}&quot; style=&quot;border-top:1px solid #000000;border-right:1px solid #000000;border-bottom:1px solid #000000;overflow:hidden;padding:2px 3px 2px 3px;vertical-align:middle;text-align:center;&quot;&gt;含有食品例&lt;/td&gt;&lt;/tr&gt;&lt;tr style=&quot;height:21px;&quot;&gt;&lt;td data-sheets-value=&quot;{&amp;quot;1&amp;quot;:2,&amp;quot;2&amp;quot;:&amp;quot;飽和&amp;quot;}&quot; colspan=&quot;2&quot; rowspan=&quot;9&quot; style=&quot;border-right:1px solid #000000;border-bottom:1px solid #000000;border-left:1px solid #000000;overflow:hidden;padding:2px 3px 2px 3px;vertical-align:middle;text-align:center;&quot;&gt;&lt;span&gt;&lt;div style=&quot;max-height:189px&quot;&gt;飽和&lt;/div&gt;&lt;/span&gt;&lt;/td&gt;&lt;td data-sheets-value=&quot;{&amp;quot;1&amp;quot;:2,&amp;quot;2&amp;quot;:&amp;quot;短鎖&amp;quot;}&quot; colspan=&quot;1&quot; rowspan=&quot;3&quot; style=&quot;border-right:1px solid #000000;border-bottom:1px solid #000000;overflow:hidden;padding:2px 3px 2px 3px;vertical-align:middle;text-align:center;&quot;&gt;&lt;span&gt;&lt;div style=&quot;max-height:63px&quot;&gt;短鎖&lt;/div&gt;&lt;/span&gt;&lt;/td&gt;&lt;td data-sheets-value=&quot;{&amp;quot;1&amp;quot;:3,&amp;quot;3&amp;quot;:2}&quot; style=&quot;border-right:1px solid #000000;border-bottom:1px solid #000000;overflow:hidden;padding:2px 3px 2px 3px;vertical-align:middle;text-align:center;&quot;&gt;2&lt;/td&gt;&lt;td data-sheets-value=&quot;{&amp;quot;1&amp;quot;:3,&amp;quot;3&amp;quot;:0}&quot; style=&quot;border-right:1px solid #000000;border-bottom:1px solid #000000;overflow:hidden;padding:2px 3px 2px 3px;vertical-align:middle;text-align:center;&quot;&gt;0&lt;/td&gt;&lt;td colspan=&quot;1&quot; rowspan=&quot;9&quot; style=&quot;border-right:1px solid #000000;border-bottom:1px solid #000000;overflow:hidden;padding:2px 3px 2px 3px;vertical-align:middle;background-color:#b7b7b7;&quot;&gt;&lt;span&gt;&lt;div style=&quot;max-height:189px&quot;&gt;&lt;/div&gt;&lt;/span&gt;&lt;/td&gt;&lt;td data-sheets-value=&quot;{&amp;quot;1&amp;quot;:2,&amp;quot;2&amp;quot;:&amp;quot;酢酸&amp;quot;}&quot; style=&quot;border-right:1px solid #000000;border-bottom:1px solid #000000;overflow:hidden;padding:2px 3px 2px 3px;vertical-align:middle;&quot;&gt;酢酸&lt;/td&gt;&lt;td data-sheets-value=&quot;{&amp;quot;1&amp;quot;:2,&amp;quot;2&amp;quot;:&amp;quot;酢&amp;quot;}&quot; style=&quot;border-right:1px solid #000000;border-bottom:1px solid #000000;overflow:hidden;padding:2px 3px 2px 3px;vertical-align:middle;&quot;&gt;酢&lt;/td&gt;&lt;/tr&gt;&lt;tr style=&quot;height:21px;&quot;&gt;&lt;td data-sheets-value=&quot;{&amp;quot;1&amp;quot;:3,&amp;quot;3&amp;quot;:4}&quot; style=&quot;border-right:1px solid #000000;border-bottom:1px solid #000000;overflow:hidden;padding:2px 3px 2px 3px;vertical-align:middle;text-align:center;&quot;&gt;4&lt;/td&gt;&lt;td data-sheets-value=&quot;{&amp;quot;1&amp;quot;:3,&amp;quot;3&amp;quot;:0}&quot; style=&quot;border-right:1px solid #000000;border-bottom:1px solid #000000;overflow:hidden;padding:2px 3px 2px 3px;vertical-align:middle;text-align:center;&quot;&gt;0&lt;/td&gt;&lt;td data-sheets-value=&quot;{&amp;quot;1&amp;quot;:2,&amp;quot;2&amp;quot;:&amp;quot;酪酸&amp;quot;}&quot; style=&quot;border-right:1px solid #000000;border-bottom:1px solid #000000;overflow:hidden;padding:2px 3px 2px 3px;vertical-align:middle;&quot;&gt;酪酸&lt;/td&gt;&lt;td data-sheets-value=&quot;{&amp;quot;1&amp;quot;:2,&amp;quot;2&amp;quot;:&amp;quot;バターなどの乳製品&amp;quot;}&quot; colspan=&quot;1&quot; rowspan=&quot;2&quot; style=&quot;border-right:1px solid #000000;border-bottom:1px solid #000000;overflow:hidden;padding:2px 3px 2px 3px;vertical-align:middle;&quot;&gt;&lt;span&gt;&lt;div style=&quot;max-height:42px&quot;&gt;バターなどの乳製品&lt;/div&gt;&lt;/span&gt;&lt;/td&gt;&lt;/tr&gt;&lt;tr style=&quot;height:21px;&quot;&gt;&lt;td data-sheets-value=&quot;{&amp;quot;1&amp;quot;:3,&amp;quot;3&amp;quot;:6}&quot; style=&quot;border-right:1px solid #000000;border-bottom:1px solid #000000;overflow:hidden;padding:2px 3px 2px 3px;vertical-align:middle;text-align:center;&quot;&gt;6&lt;/td&gt;&lt;td data-sheets-value=&quot;{&amp;quot;1&amp;quot;:3,&amp;quot;3&amp;quot;:0}&quot; style=&quot;border-right:1px solid #000000;border-bottom:1px solid #000000;overflow:hidden;padding:2px 3px 2px 3px;vertical-align:middle;text-align:center;&quot;&gt;0&lt;/td&gt;&lt;td data-sheets-value=&quot;{&amp;quot;1&amp;quot;:2,&amp;quot;2&amp;quot;:&amp;quot;カプロン酸&amp;quot;}&quot; style=&quot;border-right:1px solid #000000;border-bottom:1px solid #000000;overflow:hidden;padding:2px 3px 2px 3px;vertical-align:middle;&quot;&gt;カプロン酸&lt;/td&gt;&lt;/tr&gt;&lt;tr style=&quot;height:21px;&quot;&gt;&lt;td data-sheets-value=&quot;{&amp;quot;1&amp;quot;:2,&amp;quot;2&amp;quot;:&amp;quot;中鎖&amp;quot;}&quot; colspan=&quot;1&quot; rowspan=&quot;3&quot; style=&quot;border-right:1px solid #000000;border-bottom:1px solid #000000;overflow:hidden;padding:2px 3px 2px 3px;vertical-align:middle;text-align:center;&quot;&gt;&lt;span&gt;&lt;div style=&quot;max-height:63px&quot;&gt;中鎖&lt;/div&gt;&lt;/span&gt;&lt;/td&gt;&lt;td data-sheets-value=&quot;{&amp;quot;1&amp;quot;:3,&amp;quot;3&amp;quot;:8}&quot; style=&quot;border-right:1px solid #000000;border-bottom:1px solid #000000;overflow:hidden;padding:2px 3px 2px 3px;vertical-align:middle;text-align:center;&quot;&gt;8&lt;/td&gt;&lt;td data-sheets-value=&quot;{&amp;quot;1&amp;quot;:3,&amp;quot;3&amp;quot;:0}&quot; style=&quot;border-right:1px solid #000000;border-bottom:1px solid #000000;overflow:hidden;padding:2px 3px 2px 3px;vertical-align:middle;text-align:center;&quot;&gt;0&lt;/td&gt;&lt;td data-sheets-value=&quot;{&amp;quot;1&amp;quot;:2,&amp;quot;2&amp;quot;:&amp;quot;カプリル酸&amp;quot;}&quot; style=&quot;border-right:1px solid #000000;border-bottom:1px solid #000000;overflow:hidden;padding:2px 3px 2px 3px;vertical-align:middle;&quot;&gt;カプリル酸&lt;/td&gt;&lt;td data-sheets-value=&quot;{&amp;quot;1&amp;quot;:2,&amp;quot;2&amp;quot;:&amp;quot;ココナッツオイル、パーム核油&amp;quot;}&quot; style=&quot;border-right:1px solid #000000;border-bottom:1px solid #000000;overflow:hidden;padding:2px 3px 2px 3px;vertical-align:middle;&quot;&gt;ココナッツオイル、パーム核油&lt;/td&gt;&lt;/tr&gt;&lt;tr style=&quot;height:21px;&quot;&gt;&lt;td data-sheets-value=&quot;{&amp;quot;1&amp;quot;:3,&amp;quot;3&amp;quot;:10}&quot; style=&quot;border-right:1px solid #000000;border-bottom:1px solid #000000;overflow:hidden;padding:2px 3px 2px 3px;vertical-align:middle;text-align:center;&quot;&gt;10&lt;/td&gt;&lt;td data-sheets-value=&quot;{&amp;quot;1&amp;quot;:3,&amp;quot;3&amp;quot;:0}&quot; style=&quot;border-right:1px solid #000000;border-bottom:1px solid #000000;overflow:hidden;padding:2px 3px 2px 3px;vertical-align:middle;text-align:center;&quot;&gt;0&lt;/td&gt;&lt;td data-sheets-value=&quot;{&amp;quot;1&amp;quot;:2,&amp;quot;2&amp;quot;:&amp;quot;カプリン酸&amp;quot;}&quot; style=&quot;border-right:1px solid #000000;border-bottom:1px solid #000000;overflow:hidden;padding:2px 3px 2px 3px;vertical-align:middle;&quot;&gt;カプリン酸&lt;/td&gt;&lt;td data-sheets-value=&quot;{&amp;quot;1&amp;quot;:2,&amp;quot;2&amp;quot;:&amp;quot;ココナッツオイル、パーム核油、ヤギ乳&amp;quot;}&quot; style=&quot;border-right:1px solid #000000;border-bottom:1px solid #000000;overflow:hidden;padding:2px 3px 2px 3px;vertical-align:middle;&quot;&gt;ココナッツオイル、パーム核油、ヤギ乳&lt;/td&gt;&lt;/tr&gt;&lt;tr style=&quot;height:21px;&quot;&gt;&lt;td data-sheets-value=&quot;{&amp;quot;1&amp;quot;:3,&amp;quot;3&amp;quot;:12}&quot; style=&quot;border-right:1px solid #000000;border-bottom:1px solid #000000;overflow:hidden;padding:2px 3px 2px 3px;vertical-align:middle;text-align:center;&quot;&gt;12&lt;/td&gt;&lt;td data-sheets-value=&quot;{&amp;quot;1&amp;quot;:3,&amp;quot;3&amp;quot;:0}&quot; style=&quot;border-right:1px solid #000000;border-bottom:1px solid #000000;overflow:hidden;padding:2px 3px 2px 3px;vertical-align:middle;text-align:center;&quot;&gt;0&lt;/td&gt;&lt;td data-sheets-value=&quot;{&amp;quot;1&amp;quot;:2,&amp;quot;2&amp;quot;:&amp;quot;ラウリン酸&amp;quot;}&quot; style=&quot;border-right:1px solid #000000;border-bottom:1px solid #000000;overflow:hidden;padding:2px 3px 2px 3px;vertical-align:middle;&quot;&gt;ラウリン酸&lt;/td&gt;&lt;td data-sheets-value=&quot;{&amp;quot;1&amp;quot;:2,&amp;quot;2&amp;quot;:&amp;quot;ココナッツオイル、パーム核油、母乳&amp;quot;}&quot; style=&quot;border-right:1px solid #000000;border-bottom:1px solid #000000;overflow:hidden;padding:2px 3px 2px 3px;vertical-align:middle;&quot;&gt;ココナッツオイル、パーム核油、母乳&lt;/td&gt;&lt;/tr&gt;&lt;tr style=&quot;height:21px;&quot;&gt;&lt;td data-sheets-value=&quot;{&amp;quot;1&amp;quot;:2,&amp;quot;2&amp;quot;:&amp;quot;長鎖&amp;quot;}&quot; colspan=&quot;1&quot; rowspan=&quot;11&quot; style=&quot;border-right:1px solid #000000;border-bottom:1px solid #000000;overflow:hidden;padding:2px 3px 2px 3px;vertical-align:middle;text-align:center;&quot;&gt;&lt;span&gt;&lt;div style=&quot;max-height:231px&quot;&gt;長鎖&lt;/div&gt;&lt;/span&gt;&lt;/td&gt;&lt;td data-sheets-value=&quot;{&amp;quot;1&amp;quot;:3,&amp;quot;3&amp;quot;:14}&quot; style=&quot;border-right:1px solid #000000;border-bottom:1px solid #000000;overflow:hidden;padding:2px 3px 2px 3px;vertical-align:middle;text-align:center;&quot;&gt;14&lt;/td&gt;&lt;td data-sheets-value=&quot;{&amp;quot;1&amp;quot;:3,&amp;quot;3&amp;quot;:0}&quot; style=&quot;border-right:1px solid #000000;border-bottom:1px solid #000000;overflow:hidden;padding:2px 3px 2px 3px;vertical-align:middle;text-align:center;&quot;&gt;0&lt;/td&gt;&lt;td data-sheets-value=&quot;{&amp;quot;1&amp;quot;:2,&amp;quot;2&amp;quot;:&amp;quot;ミリスチン酸&amp;quot;}&quot; style=&quot;border-right:1px solid #000000;border-bottom:1px solid #000000;overflow:hidden;padding:2px 3px 2px 3px;vertical-align:middle;&quot;&gt;ミリスチン酸&lt;/td&gt;&lt;td data-sheets-value=&quot;{&amp;quot;1&amp;quot;:2,&amp;quot;2&amp;quot;:&amp;quot;ココナッツオイル、パーム核油&amp;quot;}&quot; style=&quot;border-right:1px solid #000000;border-bottom:1px solid #000000;overflow:hidden;padding:2px 3px 2px 3px;vertical-align:middle;&quot;&gt;ココナッツオイル、パーム核油&lt;/td&gt;&lt;/tr&gt;&lt;tr style=&quot;height:21px;&quot;&gt;&lt;td data-sheets-value=&quot;{&amp;quot;1&amp;quot;:3,&amp;quot;3&amp;quot;:16}&quot; style=&quot;border-right:1px solid #000000;border-bottom:1px solid #000000;overflow:hidden;padding:2px 3px 2px 3px;vertical-align:middle;text-align:center;&quot;&gt;16&lt;/td&gt;&lt;td data-sheets-value=&quot;{&amp;quot;1&amp;quot;:3,&amp;quot;3&amp;quot;:0}&quot; style=&quot;border-right:1px solid #000000;border-bottom:1px solid #000000;overflow:hidden;padding:2px 3px 2px 3px;vertical-align:middle;text-align:center;&quot;&gt;0&lt;/td&gt;&lt;td data-sheets-value=&quot;{&amp;quot;1&amp;quot;:2,&amp;quot;2&amp;quot;:&amp;quot;パルミチン酸&amp;quot;}&quot; style=&quot;border-right:1px solid #000000;border-bottom:1px solid #000000;overflow:hidden;padding:2px 3px 2px 3px;vertical-align:middle;&quot;&gt;パルミチン酸&lt;/td&gt;&lt;td data-sheets-value=&quot;{&amp;quot;1&amp;quot;:2,&amp;quot;2&amp;quot;:&amp;quot;パーム油、ラード、牛脂、バター&amp;quot;}&quot; style=&quot;border-right:1px solid #000000;border-bottom:1px solid #000000;overflow:hidden;padding:2px 3px 2px 3px;vertical-align:middle;&quot;&gt;パーム油、ラード、牛脂、バター&lt;/td&gt;&lt;/tr&gt;&lt;tr style=&quot;height:21px;&quot;&gt;&lt;td data-sheets-value=&quot;{&amp;quot;1&amp;quot;:3,&amp;quot;3&amp;quot;:18}&quot; style=&quot;border-right:1px solid #000000;border-bottom:1px solid #000000;overflow:hidden;padding:2px 3px 2px 3px;vertical-align:middle;text-align:center;&quot;&gt;18&lt;/td&gt;&lt;td data-sheets-value=&quot;{&amp;quot;1&amp;quot;:3,&amp;quot;3&amp;quot;:0}&quot; style=&quot;border-right:1px solid #000000;border-bottom:1px solid #000000;overflow:hidden;padding:2px 3px 2px 3px;vertical-align:middle;text-align:center;&quot;&gt;0&lt;/td&gt;&lt;td data-sheets-value=&quot;{&amp;quot;1&amp;quot;:2,&amp;quot;2&amp;quot;:&amp;quot;ステアリン酸&amp;quot;}&quot; style=&quot;border-right:1px solid #000000;border-bottom:1px solid #000000;overflow:hidden;padding:2px 3px 2px 3px;vertical-align:middle;&quot;&gt;ステアリン酸&lt;/td&gt;&lt;td data-sheets-value=&quot;{&amp;quot;1&amp;quot;:2,&amp;quot;2&amp;quot;:&amp;quot;ラード、牛脂&amp;quot;}&quot; style=&quot;border-right:1px solid #000000;border-bottom:1px solid #000000;overflow:hidden;padding:2px 3px 2px 3px;vertical-align:middle;&quot;&gt;ラード、牛脂&lt;/td&gt;&lt;/tr&gt;&lt;tr style=&quot;height:21px;&quot;&gt;&lt;td data-sheets-value=&quot;{&amp;quot;1&amp;quot;:2,&amp;quot;2&amp;quot;:&amp;quot;不飽和&amp;quot;}&quot; colspan=&quot;1&quot; rowspan=&quot;8&quot; style=&quot;border-right:1px solid #000000;border-bottom:1px solid #000000;border-left:1px solid #000000;overflow:hidden;padding:2px 3px 2px 3px;vertical-align:middle;text-align:center;&quot;&gt;&lt;span&gt;&lt;div style=&quot;max-height:168px&quot;&gt;不飽和&lt;/div&gt;&lt;/span&gt;&lt;/td&gt;&lt;td data-sheets-value=&quot;{&amp;quot;1&amp;quot;:2,&amp;quot;2&amp;quot;:&amp;quot;一価&amp;quot;}&quot; colspan=&quot;1&quot; rowspan=&quot;2&quot; style=&quot;border-right:1px solid #000000;border-bottom:1px solid #000000;overflow:hidden;padding:2px 3px 2px 3px;vertical-align:middle;text-align:center;&quot;&gt;&lt;span&gt;&lt;div style=&quot;max-height:42px&quot;&gt;一価&lt;/div&gt;&lt;/span&gt;&lt;/td&gt;&lt;td data-sheets-value=&quot;{&amp;quot;1&amp;quot;:3,&amp;quot;3&amp;quot;:16}&quot; style=&quot;border-right:1px solid #000000;border-bottom:1px solid #000000;overflow:hidden;padding:2px 3px 2px 3px;vertical-align:middle;text-align:center;&quot;&gt;16&lt;/td&gt;&lt;td data-sheets-value=&quot;{&amp;quot;1&amp;quot;:3,&amp;quot;3&amp;quot;:1}&quot; style=&quot;border-right:1px solid #000000;border-bottom:1px solid #000000;overflow:hidden;padding:2px 3px 2px 3px;vertical-align:middle;text-align:center;&quot;&gt;1&lt;/td&gt;&lt;td data-sheets-value=&quot;{&amp;quot;1&amp;quot;:2,&amp;quot;2&amp;quot;:&amp;quot;n-9&amp;quot;}&quot; style=&quot;border-right:1px solid #000000;border-bottom:1px solid #000000;overflow:hidden;padding:2px 3px 2px 3px;vertical-align:middle;text-align:center;&quot;&gt;n-9&lt;/td&gt;&lt;td data-sheets-value=&quot;{&amp;quot;1&amp;quot;:2,&amp;quot;2&amp;quot;:&amp;quot;パルミトオレイン酸&amp;quot;}&quot; style=&quot;border-right:1px solid #000000;border-bottom:1px solid #000000;overflow:hidden;padding:2px 3px 2px 3px;vertical-align:middle;&quot;&gt;パルミトオレイン酸&lt;/td&gt;&lt;td data-sheets-value=&quot;{&amp;quot;1&amp;quot;:2,&amp;quot;2&amp;quot;:&amp;quot;マカデミアナッツオイル、馬油&amp;quot;}&quot; style=&quot;border-right:1px solid #000000;border-bottom:1px solid #000000;overflow:hidden;padding:2px 3px 2px 3px;vertical-align:middle;&quot;&gt;マカデミアナッツオイル、馬油&lt;/td&gt;&lt;/tr&gt;&lt;tr style=&quot;height:21px;&quot;&gt;&lt;td data-sheets-value=&quot;{&amp;quot;1&amp;quot;:3,&amp;quot;3&amp;quot;:18}&quot; style=&quot;border-right:1px solid #000000;border-bottom:1px solid #000000;overflow:hidden;padding:2px 3px 2px 3px;vertical-align:middle;text-align:center;&quot;&gt;18&lt;/td&gt;&lt;td data-sheets-value=&quot;{&amp;quot;1&amp;quot;:3,&amp;quot;3&amp;quot;:1}&quot; style=&quot;border-right:1px solid #000000;border-bottom:1px solid #000000;overflow:hidden;padding:2px 3px 2px 3px;vertical-align:middle;text-align:center;&quot;&gt;1&lt;/td&gt;&lt;td data-sheets-value=&quot;{&amp;quot;1&amp;quot;:2,&amp;quot;2&amp;quot;:&amp;quot;n-9&amp;quot;}&quot; style=&quot;border-right:1px solid #000000;border-bottom:1px solid #000000;overflow:hidden;padding:2px 3px 2px 3px;vertical-align:middle;text-align:center;&quot;&gt;n-9&lt;/td&gt;&lt;td data-sheets-value=&quot;{&amp;quot;1&amp;quot;:2,&amp;quot;2&amp;quot;:&amp;quot;オレイン酸&amp;quot;}&quot; style=&quot;border-right:1px solid #000000;border-bottom:1px solid #000000;overflow:hidden;padding:2px 3px 2px 3px;vertical-align:middle;&quot;&gt;オレイン酸&lt;/td&gt;&lt;td data-sheets-value=&quot;{&amp;quot;1&amp;quot;:2,&amp;quot;2&amp;quot;:&amp;quot;オリーブオイル、アーモンドオイル&amp;quot;}&quot; style=&quot;border-right:1px solid #000000;border-bottom:1px solid #000000;overflow:hidden;padding:2px 3px 2px 3px;vertical-align:middle;&quot;&gt;オリーブオイル、アーモンドオイル&lt;/td&gt;&lt;/tr&gt;&lt;tr style=&quot;height:21px;&quot;&gt;&lt;td data-sheets-value=&quot;{&amp;quot;1&amp;quot;:2,&amp;quot;2&amp;quot;:&amp;quot;多価（必須）&amp;quot;}&quot; colspan=&quot;1&quot; rowspan=&quot;6&quot; style=&quot;border-right:1px solid #000000;border-bottom:1px solid #000000;overflow:hidden;padding:2px 3px 2px 3px;vertical-align:middle;text-align:center;&quot;&gt;&lt;span&gt;&lt;div style=&quot;max-height:126px&quot;&gt;多価（必須）&lt;/div&gt;&lt;/span&gt;&lt;/td&gt;&lt;td data-sheets-value=&quot;{&amp;quot;1&amp;quot;:3,&amp;quot;3&amp;quot;:18}&quot; style=&quot;border-right:1px solid #000000;border-bottom:1px solid #000000;overflow:hidden;padding:2px 3px 2px 3px;vertical-align:middle;text-align:center;&quot;&gt;18&lt;/td&gt;&lt;td data-sheets-value=&quot;{&amp;quot;1&amp;quot;:3,&amp;quot;3&amp;quot;:2}&quot; style=&quot;border-right:1px solid #000000;border-bottom:1px solid #000000;overflow:hidden;padding:2px 3px 2px 3px;vertical-align:middle;text-align:center;&quot;&gt;2&lt;/td&gt;&lt;td data-sheets-value=&quot;{&amp;quot;1&amp;quot;:2,&amp;quot;2&amp;quot;:&amp;quot;n-6&amp;quot;}&quot; style=&quot;border-right:1px solid #000000;border-bottom:1px solid #000000;overflow:hidden;padding:2px 3px 2px 3px;vertical-align:middle;text-align:center;&quot;&gt;n-6&lt;/td&gt;&lt;td data-sheets-value=&quot;{&amp;quot;1&amp;quot;:2,&amp;quot;2&amp;quot;:&amp;quot;リノール酸&amp;quot;}&quot; style=&quot;border-right:1px solid #000000;border-bottom:1px solid #000000;overflow:hidden;padding:2px 3px 2px 3px;vertical-align:middle;&quot;&gt;リノール酸&lt;/td&gt;&lt;td data-sheets-value=&quot;{&amp;quot;1&amp;quot;:2,&amp;quot;2&amp;quot;:&amp;quot;コーン油、大豆油、グレープシードオイル&amp;quot;}&quot; style=&quot;border-right:1px solid #000000;border-bottom:1px solid #000000;overflow:hidden;padding:2px 3px 2px 3px;vertical-align:middle;&quot;&gt;コーン油、大豆油、グレープシードオイル&lt;/td&gt;&lt;/tr&gt;&lt;tr style=&quot;height:21px;&quot;&gt;&lt;td data-sheets-value=&quot;{&amp;quot;1&amp;quot;:3,&amp;quot;3&amp;quot;:18}&quot; style=&quot;border-right:1px solid #000000;border-bottom:1px solid #000000;overflow:hidden;padding:2px 3px 2px 3px;vertical-align:middle;text-align:center;&quot;&gt;18&lt;/td&gt;&lt;td data-sheets-value=&quot;{&amp;quot;1&amp;quot;:3,&amp;quot;3&amp;quot;:3}&quot; style=&quot;border-right:1px solid #000000;border-bottom:1px solid #000000;overflow:hidden;padding:2px 3px 2px 3px;vertical-align:middle;text-align:center;&quot;&gt;3&lt;/td&gt;&lt;td data-sheets-value=&quot;{&amp;quot;1&amp;quot;:2,&amp;quot;2&amp;quot;:&amp;quot;n-3&amp;quot;}&quot; style=&quot;border-right:1px solid #000000;border-bottom:1px solid #000000;overflow:hidden;padding:2px 3px 2px 3px;vertical-align:middle;text-align:center;&quot;&gt;n-3&lt;/td&gt;&lt;td data-sheets-value=&quot;{&amp;quot;1&amp;quot;:2,&amp;quot;2&amp;quot;:&amp;quot;α-リノレン酸&amp;quot;}&quot; style=&quot;border-right:1px solid #000000;border-bottom:1px solid #000000;overflow:hidden;padding:2px 3px 2px 3px;vertical-align:middle;&quot;&gt;α-リノレン酸&lt;/td&gt;&lt;td data-sheets-value=&quot;{&amp;quot;1&amp;quot;:2,&amp;quot;2&amp;quot;:&amp;quot;えごま油、アマニ油&amp;quot;}&quot; style=&quot;border-right:1px solid #000000;border-bottom:1px solid #000000;overflow:hidden;padding:2px 3px 2px 3px;vertical-align:middle;&quot;&gt;えごま油、アマニ油&lt;/td&gt;&lt;/tr&gt;&lt;tr style=&quot;height:21px;&quot;&gt;&lt;td data-sheets-value=&quot;{&amp;quot;1&amp;quot;:3,&amp;quot;3&amp;quot;:18}&quot; style=&quot;border-right:1px solid #000000;border-bottom:1px solid #000000;overflow:hidden;padding:2px 3px 2px 3px;vertical-align:middle;text-align:center;&quot;&gt;18&lt;/td&gt;&lt;td data-sheets-value=&quot;{&amp;quot;1&amp;quot;:3,&amp;quot;3&amp;quot;:3}&quot; style=&quot;border-right:1px solid #000000;border-bottom:1px solid #000000;overflow:hidden;padding:2px 3px 2px 3px;vertical-align:middle;text-align:center;&quot;&gt;3&lt;/td&gt;&lt;td data-sheets-value=&quot;{&amp;quot;1&amp;quot;:2,&amp;quot;2&amp;quot;:&amp;quot;n-6&amp;quot;}&quot; style=&quot;border-right:1px solid #000000;border-bottom:1px solid #000000;overflow:hidden;padding:2px 3px 2px 3px;vertical-align:middle;text-align:center;&quot;&gt;n-6&lt;/td&gt;&lt;td data-sheets-value=&quot;{&amp;quot;1&amp;quot;:2,&amp;quot;2&amp;quot;:&amp;quot;γ-リノレン酸&amp;quot;}&quot; style=&quot;border-right:1px solid #000000;border-bottom:1px solid #000000;overflow:hidden;padding:2px 3px 2px 3px;vertical-align:middle;&quot;&gt;γ-リノレン酸&lt;/td&gt;&lt;td data-sheets-value=&quot;{&amp;quot;1&amp;quot;:2,&amp;quot;2&amp;quot;:&amp;quot;月見草油&amp;quot;}&quot; style=&quot;border-right:1px solid #000000;border-bottom:1px solid #000000;overflow:hidden;padding:2px 3px 2px 3px;vertical-align:middle;&quot;&gt;月見草油&lt;/td&gt;&lt;/tr&gt;&lt;tr style=&quot;height:21px;&quot;&gt;&lt;td data-sheets-value=&quot;{&amp;quot;1&amp;quot;:3,&amp;quot;3&amp;quot;:20}&quot; style=&quot;border-right:1px solid #000000;border-bottom:1px solid #000000;overflow:hidden;padding:2px 3px 2px 3px;vertical-align:middle;text-align:center;&quot;&gt;20&lt;/td&gt;&lt;td data-sheets-value=&quot;{&amp;quot;1&amp;quot;:3,&amp;quot;3&amp;quot;:4}&quot; style=&quot;border-right:1px solid #000000;border-bottom:1px solid #000000;overflow:hidden;padding:2px 3px 2px 3px;vertical-align:middle;text-align:center;&quot;&gt;4&lt;/td&gt;&lt;td data-sheets-value=&quot;{&amp;quot;1&amp;quot;:2,&amp;quot;2&amp;quot;:&amp;quot;n-6&amp;quot;}&quot; style=&quot;border-right:1px solid #000000;border-bottom:1px solid #000000;overflow:hidden;padding:2px 3px 2px 3px;vertical-align:middle;text-align:center;&quot;&gt;n-6&lt;/td&gt;&lt;td data-sheets-value=&quot;{&amp;quot;1&amp;quot;:2,&amp;quot;2&amp;quot;:&amp;quot;アラキドン酸&amp;quot;}&quot; style=&quot;border-right:1px solid #000000;border-bottom:1px solid #000000;overflow:hidden;padding:2px 3px 2px 3px;vertical-align:middle;&quot;&gt;アラキドン酸&lt;/td&gt;&lt;td data-sheets-value=&quot;{&amp;quot;1&amp;quot;:2,&amp;quot;2&amp;quot;:&amp;quot;卵、肉、魚介&amp;quot;}&quot; style=&quot;border-right:1px solid #000000;border-bottom:1px solid #000000;overflow:hidden;padding:2px 3px 2px 3px;vertical-align:middle;&quot;&gt;卵、肉、魚介&lt;/td&gt;&lt;/tr&gt;&lt;tr style=&quot;height:21px;&quot;&gt;&lt;td data-sheets-value=&quot;{&amp;quot;1&amp;quot;:3,&amp;quot;3&amp;quot;:20}&quot; style=&quot;border-right:1px solid #000000;border-bottom:1px solid #000000;overflow:hidden;padding:2px 3px 2px 3px;vertical-align:middle;text-align:center;&quot;&gt;20&lt;/td&gt;&lt;td data-sheets-value=&quot;{&amp;quot;1&amp;quot;:3,&amp;quot;3&amp;quot;:5}&quot; style=&quot;border-right:1px solid #000000;border-bottom:1px solid #000000;overflow:hidden;padding:2px 3px 2px 3px;vertical-align:middle;text-align:center;&quot;&gt;5&lt;/td&gt;&lt;td data-sheets-value=&quot;{&amp;quot;1&amp;quot;:2,&amp;quot;2&amp;quot;:&amp;quot;n-3&amp;quot;}&quot; style=&quot;border-right:1px solid #000000;border-bottom:1px solid #000000;overflow:hidden;padding:2px 3px 2px 3px;vertical-align:middle;text-align:center;&quot;&gt;n-3&lt;/td&gt;&lt;td data-sheets-value=&quot;{&amp;quot;1&amp;quot;:2,&amp;quot;2&amp;quot;:&amp;quot;イコサペンタエン酸（EPA）&amp;quot;}&quot; style=&quot;border-right:1px solid #000000;border-bottom:1px solid #000000;overflow:hidden;padding:2px 3px 2px 3px;vertical-align:middle;&quot;&gt;イコサペンタエン酸（EPA）&lt;/td&gt;&lt;td data-sheets-value=&quot;{&amp;quot;1&amp;quot;:2,&amp;quot;2&amp;quot;:&amp;quot;魚介&amp;quot;}&quot; style=&quot;border-right:1px solid #000000;border-bottom:1px solid #000000;overflow:hidden;padding:2px 3px 2px 3px;vertical-align:middle;&quot;&gt;魚介&lt;/td&gt;&lt;/tr&gt;&lt;tr style=&quot;height:21px;&quot;&gt;&lt;td data-sheets-value=&quot;{&amp;quot;1&amp;quot;:3,&amp;quot;3&amp;quot;:22}&quot; style=&quot;border-right:1px solid #000000;border-bottom:1px solid #000000;overflow:hidden;padding:2px 3px 2px 3px;vertical-align:middle;text-align:center;&quot;&gt;22&lt;/td&gt;&lt;td data-sheets-value=&quot;{&amp;quot;1&amp;quot;:3,&amp;quot;3&amp;quot;:6}&quot; style=&quot;border-right:1px solid #000000;border-bottom:1px solid #000000;overflow:hidden;padding:2px 3px 2px 3px;vertical-align:middle;text-align:center;&quot;&gt;6&lt;/td&gt;&lt;td data-sheets-value=&quot;{&amp;quot;1&amp;quot;:2,&amp;quot;2&amp;quot;:&amp;quot;n-3&amp;quot;}&quot; style=&quot;border-right:1px solid #000000;border-bottom:1px solid #000000;overflow:hidden;padding:2px 3px 2px 3px;vertical-align:middle;text-align:center;&quot;&gt;n-3&lt;/td&gt;&lt;td data-sheets-value=&quot;{&amp;quot;1&amp;quot;:2,&amp;quot;2&amp;quot;:&amp;quot;ドコサヘキサエン酸（DHA）&amp;quot;}&quot; style=&quot;border-right:1px solid #000000;border-bottom:1px solid #000000;overflow:hidden;padding:2px 3px 2px 3px;vertical-align:middle;&quot;&gt;ドコサヘキサエン酸（DHA）&lt;/td&gt;&lt;td data-sheets-value=&quot;{&amp;quot;1&amp;quot;:2,&amp;quot;2&amp;quot;:&amp;quot;魚介&amp;quot;}&quot; style=&quot;border-right:1px solid #000000;border-bottom:1px solid #000000;overflow:hidden;padding:2px 3px 2px 3px;vertical-align:middle;&quot;&gt;魚介&lt;/td&gt;&lt;/tr&gt;&lt;/tbody&gt;&lt;/table&gt;" style="text;whiteSpace=wrap;html=1;" vertex="1" parent="1">
                    <mxGeometry x="500" y="170" width="560" height="420" as="geometry"/>
                </mxCell>
            </root>
        </mxGraphModel>
    </diagram>
</mxfile>